<svg width="24" height="24" viewBox="0 0 24 24" fill="none" xmlns="http://www.w3.org/2000/svg">
<g clip-path="url(#clip0_11095_38)">
<path fill-rule="evenodd" clip-rule="evenodd" d="M1.41443 13.7642C0.858295 13.8569 0.477904 14.3843 0.6181 14.9305C1.92004 20.0019 6.5222 23.75 11.9998 23.75C18.4892 23.75 23.7499 18.4893 23.7499 12C23.7499 5.51065 18.4892 0.25 11.9998 0.25C8.4882 0.25 5.33635 1.79046 3.1832 4.23248C2.56005 3.65587 2.05327 3.22592 1.65653 2.90997C1.12236 2.48457 0.415963 2.79327 0.351516 3.47309C0.207717 4.98993 0.237907 6.719 0.311917 8.13965C0.351245 8.8945 0.95195 9.49525 1.70682 9.5346C3.13528 9.60905 4.87552 9.6392 6.39835 9.4927C7.07055 9.42805 7.37645 8.7359 6.9565 8.207C6.61365 7.7752 6.1312 7.209 5.462 6.49655C7.0296 4.63641 9.37655 3.45466 11.9995 3.45466C16.7191 3.45466 20.545 7.2806 20.545 12.0001C20.545 16.7197 16.7191 20.5455 11.9995 20.5455C8.114 20.5455 4.83415 17.9524 3.79628 14.4023C3.6378 13.8602 3.11702 13.4805 2.55992 13.5733L1.41443 13.7642ZM13.25 6C13.25 5.30965 12.6903 4.75 12 4.75C11.3097 4.75 10.75 5.30965 10.75 6V12C10.75 12.3315 10.8817 12.6494 11.1161 12.8839L14.8661 16.6339C15.3542 17.122 16.1458 17.122 16.6339 16.6339C17.122 16.1458 17.122 15.3542 16.6339 14.8661L13.25 11.4823V6Z" fill="#1F2723"/>
</g>
<defs>
<clipPath id="clip0_11095_38">
<rect width="24" height="24" fill="white"/>
</clipPath>
</defs>
</svg>
