<svg width="24" height="24" viewBox="0 0 24 24" fill="none" xmlns="http://www.w3.org/2000/svg">
<g clip-path="url(#clip0_11006_34)">
<path fill-rule="evenodd" clip-rule="evenodd" d="M17.9209 8.50585C18.0213 6.24435 18.0611 4.14583 18.0768 2.83085C18.0881 1.89141 17.4963 0.99699 16.5205 0.83537C16.2192 0.785465 15.8917 0.750005 15.5678 0.75C15.228 0.749995 14.8841 0.773405 14.5708 0.805715C13.665 0.89913 12.9864 1.60936 12.907 2.50998C12.8195 3.50354 12.7514 4.79376 12.7037 5.88315C12.4037 4.42302 12.1303 3.34593 11.9252 2.61522C11.6917 1.78338 11.0132 1.10306 10.0974 1.08382C9.48148 1.07087 8.70448 1.15263 7.93433 1.5004C7.06683 1.89216 6.77183 2.86644 6.91293 3.72368C7.11338 4.94113 7.49953 6.92955 8.17298 9.21865C6.11843 9.8854 4.83591 10.8444 4.11472 11.5437C3.52695 12.1137 3.30728 12.915 3.34521 13.6945C3.45997 16.0525 3.91838 18.0583 4.39857 19.5702C5.06608 21.6719 6.98608 22.9903 9.15823 23.1428C10.0433 23.2049 11.0557 23.25 12.1292 23.25C13.0665 23.25 13.8824 23.2131 14.5741 23.1593C16.4803 23.0107 18.1273 21.8847 18.9044 20.1308C19.5693 18.6302 20.2972 16.5085 20.6304 13.9074C20.8609 12.1086 19.6736 10.3785 17.8316 10.2586C16.0215 10.2992 14.5401 10.4915 13.3085 10.8243C12.789 10.9647 12.4621 11.451 12.5293 11.9889C12.577 12.3701 12.6488 12.7801 12.7554 13.1764C12.8701 13.6024 13.2901 13.9496 13.9077 14.0032C14.5494 14.0588 15.4005 14.1108 16.4141 14.1224C16.6276 14.1172 16.7769 14.1221 16.8393 14.1249C17.3205 14.1272 17.71 14.5181 17.71 14.9999C17.71 15.4931 17.295 15.8801 16.809 15.8749C16.7767 15.8748 16.7445 15.8747 16.7122 15.8747C16.5211 15.8741 16.3308 15.8736 16.1397 15.8876C15.7397 15.9169 15.2246 15.9907 14.7236 16.1604C14.2203 16.3309 13.7784 16.5821 13.4666 16.9359C13.17 17.2726 12.9429 17.7551 12.9429 18.4998C12.9429 18.9831 12.5511 19.3748 12.0679 19.3748C11.5846 19.3748 11.1929 18.9831 11.1929 18.4998C11.1929 17.3536 11.5595 16.4532 12.1535 15.779C12.2744 15.6419 12.4025 15.5165 12.5358 15.4018C11.8535 15.0573 11.2899 14.4649 11.0656 13.6313C10.9327 13.1374 10.8476 12.6447 10.7928 12.2059C10.6179 10.8064 11.4865 9.50385 12.852 9.13485C14.286 8.74735 15.9559 8.5422 17.9209 8.50585Z" fill="#1F2723"/>
</g>
<defs>
<clipPath id="clip0_11006_34">
<rect width="24" height="24" fill="white"/>
</clipPath>
</defs>
</svg>
