<svg width="24" height="24" viewBox="0 0 24 24" fill="none" xmlns="http://www.w3.org/2000/svg">
<g clip-path="url(#clip0_2030_48)">
<path fill-rule="evenodd" clip-rule="evenodd" d="M5.79223 4.87715C7.08241 3.5023 8.82772 2.76001 11.0755 2.76001H12.0187C14.9467 2.76001 17.519 4.70864 18.2374 7.51544L18.8134 9.76424C19.5883 10.0017 20.2577 10.222 20.8236 10.4524C21.4963 10.7265 22.0773 11.0361 22.5387 11.4533C23.5284 12.3477 23.76 13.5394 23.76 15.1106C23.76 16.9733 22.7073 18.3165 21.3562 18.779L21.3564 18.72C21.3564 17.6044 21.0375 16.4956 20.2092 15.6672C19.3809 14.839 18.2721 14.52 17.1564 14.52C16.0409 14.52 14.9321 14.839 14.1038 15.6672C13.2754 16.4956 12.9566 17.6044 12.9566 18.72C12.9566 18.798 12.9581 18.8757 12.9612 18.9535H10.8014C10.8045 18.8757 10.806 18.798 10.806 18.72C10.806 17.6044 10.487 16.4956 9.65881 15.6672C8.83046 14.839 7.72166 14.52 6.60601 14.52C5.49035 14.52 4.38155 14.839 3.55321 15.6672C2.72846 16.492 2.40875 17.5949 2.40601 18.706C1.80138 18.4502 1.32103 18.01 0.973377 17.4393C0.438177 16.5609 0.240005 15.4202 0.240005 14.2567C0.240005 12.0754 1.13606 10.8396 2.16326 10.1968C2.63229 9.90344 3.09583 9.75395 3.44761 9.67681C3.91389 7.76384 4.64469 6.1003 5.79223 4.87715ZM16.1549 9.54121L15.7963 8.14047C15.3722 6.48378 13.8322 5.28001 12.0187 5.28001H11.0755C9.44041 5.28001 8.38938 5.79207 7.62995 6.60155C7.01486 7.2571 6.50623 8.19927 6.11623 9.46904C9.46955 9.27721 12.8002 9.31098 16.1549 9.54121Z" fill="#1F2723"/>
<path fill-rule="evenodd" clip-rule="evenodd" d="M6.59979 16.2C8.21243 16.2 9.12012 17.107 9.1203 18.7195C9.1203 20.3323 8.21259 21.24 6.59979 21.24C4.98728 21.2398 4.08026 20.3321 4.08026 18.7195C4.08044 17.1071 4.98744 16.2001 6.59979 16.2Z" fill="#1F2723"/>
<path fill-rule="evenodd" clip-rule="evenodd" d="M17.1598 16.2C18.7724 16.2 19.6801 17.107 19.6803 18.7195C19.6803 20.3323 18.7726 21.24 17.1598 21.24C15.5473 21.2398 14.6403 20.3321 14.6403 18.7195C14.6404 17.1071 15.5474 16.2001 17.1598 16.2Z" fill="#1F2723"/>
</g>
<defs>
<clipPath id="clip0_2030_48">
<rect width="24" height="24" fill="white"/>
</clipPath>
</defs>
</svg>
